<?xml version="1.0" standalone="no"?> <!DOCTYPE svg PUBLIC "-//W3C//DTD SVG 1.0//EN" "http://www.w3.org/TR/2001/REC-SVG-20010904/DTD/svg10.dtd" > <svg xmlns="http://www.w3.org/2000/svg" width="100%" height="100%">
<defs >
<font id="BigNoodleTitling-Oblique" horiz-adv-x="312" ><font-face
    font-family="BigNoodleTitling"
    units-per-em="1000"
    panose-1="2 0 7 8 3 4 2 4 1 0"
    ascent="894"
    descent="-183"
    alphabetic="0" />
<missing-glyph horiz-adv-x="421" d="M38 0H383V644H38V0ZM100 58V587H320V58H100Z" />
<glyph unicode=" " glyph-name="space" horiz-adv-x="157" />
<glyph unicode="!" glyph-name="exclam" horiz-adv-x="191" d="M166 718L127 194H48L62 718H166ZM135 122L129 0H29L35 122H135Z" />
<glyph unicode="&quot;" glyph-name="quotedbl" horiz-adv-x="269" d="M165 718H259L232 420H162L165 718ZM24 718H117L91 420H21L24 718Z" />
<glyph unicode="#" glyph-name="numbersign" horiz-adv-x="456" d="M326 718H393L363 547H436L425 479H352L311 244H383L373 176H299L269 0H203L232 176H133L104 0H37L67 176H-9L1 244H79L120 479H43L53 547H131L160 718H227L197 547H296L326 718ZM145 244H244L286
479H187L145 244Z" />
<glyph unicode="$" glyph-name="dollar" horiz-adv-x="367" d="M232 525L235 588Q238 631 197 631H182Q142 631 139 588L133 466Q132 446 139 439T164 421L250 372Q279 355 290 346T308 323T313 271L305 121Q299 3 191 0L187 -76H120L124 0Q15 2 22 132L24 168H118L115
129Q113 87 155 87H172Q209 87 211 129L218 248Q219 268 211 275T187 293L101 344Q72 360 60 371T42 399T38 445L46 595Q52 716 161 718L165 794H232L228 718Q336 715 330 595L326 525H232Z" />
<glyph unicode="%" glyph-name="percent" horiz-adv-x="607" d="M463 718L203 0H143L403 718H463ZM146 334H115Q37 334 41 409L53 643Q57 718 135 718H166Q244 718 240 643L228 409Q224 334 146 334ZM154 663H140Q118 663 117 635L105 416Q104 388 126 388H140Q163
388 164 416L176 635Q177 663 154 663ZM471 0H440Q362 0 366 75L378 309Q382 384 460 384H491Q569 384 565 309L553 75Q549 0 471 0ZM479 329H465Q443 329 441 301L430 82Q429 54 451 54H465Q488 54 489 82L500 301Q502 329 479 329Z" />
<glyph unicode="&amp;" glyph-name="ampersand" horiz-adv-x="366" d="M114 371Q52 386 55 448L63 595Q69 718 182 718H219Q332 718 326 595L323 532H234L237 596Q239 638 196 638H186Q153 632 151 596L143 454Q141 402 184 402H358L354 331H312L301 122Q295 0
181 0H134Q20 0 26 122L35 285Q38 351 114 371ZM223 331H181Q125 331 122 279L114 122Q112 80 155 80H173Q210 80 212 122L223 331Z" />
<glyph unicode="&apos;" glyph-name="quotesingle" horiz-adv-x="117" d="M19 718H112L85 420H16L19 718Z" />
<glyph unicode="(" glyph-name="parenleft" horiz-adv-x="201" d="M177 -183H132Q25 -183 31 -61L66 595Q72 718 179 718H224L220 642H191Q150 642 147 591L114 -57Q111 -108 152 -108H181L177 -183Z" />
<glyph unicode=")" glyph-name="parenright" horiz-adv-x="201" d="M-23 -183H21Q128 -183 134 -61L169 595Q175 718 68 718H23L19 642H48Q89 642 86 591L53 -57Q50 -108 9 -108H-19L-23 -183Z" />
<glyph unicode="*" glyph-name="asterisk" horiz-adv-x="338" d="M87 720L151 648L159 654L173 757L263 726L209 636L213 629L313 653L312 565L216 579L212 572L267 493L184 446L162 548L153 551L78 475L27 548L117 591L115 600L26 642L87 720Z" />
<glyph unicode="+" glyph-name="plus" horiz-adv-x="373" d="M230 300L224 188H138L144 300H36L41 384H149L155 500H241L235 384H336L331 300H230Z" />
<glyph unicode="," glyph-name="comma" horiz-adv-x="163" d="M23 -119L74 0H28L35 124H140L133 0L80 -119H23Z" />
<glyph unicode="-" glyph-name="hyphen" horiz-adv-x="240" d="M9 281L14 361H230L225 281H9Z" />
<glyph unicode="." glyph-name="period" horiz-adv-x="158" d="M132 122L125 0H25L32 122H132Z" />
<glyph unicode="/" glyph-name="slash" horiz-adv-x="281" d="M302 768L44 -50H-21L235 768H302Z" />
<glyph unicode="0" glyph-name="zero" horiz-adv-x="379" d="M138 0Q25 0 31 123L56 595Q62 718 175 718H240Q353 718 347 595L322 123Q316 0 203 0H138ZM189 631Q152 631 150 589L125 129Q123 87 165 87H189Q226 87 228 129L253 589Q255 631 213 631H189Z" />
<glyph unicode="1" glyph-name="one" horiz-adv-x="237" d="M46 559L28 625Q65 639 92 664T135 718H144L205 684L169 0H76L106 577L46 559Z" />
<glyph unicode="2" glyph-name="two" horiz-adv-x="361" d="M290 86L286 0H33L44 221Q45 239 48 251T60 273T89 303L188 396Q199 407 206 415T215 428T219 440T221 456L228 589Q230 631 190 631H184Q144 631 142 589L138 515H44L48 595Q54 718 166 718H215Q328
718 322 595L313 423Q312 403 306 388T276 351L167 249Q146 230 143 223T139 209T138 190L132 86H290Z" />
<glyph unicode="3" glyph-name="three" horiz-adv-x="365" d="M253 369Q325 349 321 278L313 122Q307 0 194 0H131Q18 0 24 122L27 168H121L118 129Q116 87 153 87H175Q217 87 219 129L227 277Q230 324 175 324H150L154 405H167Q222 405 224 452L231 588Q234 630
192 630H179Q142 630 139 588L136 515H42L46 595Q52 718 165 718H220Q332 718 326 595L318 452Q315 384 253 369Z" />
<glyph unicode="4" glyph-name="four" horiz-adv-x="359" d="M335 168H281L272 0H180L189 168H24L8 249L215 718H309L285 249H339L335 168ZM216 527H211L108 249H196L216 527Z" />
<glyph unicode="5" glyph-name="five" horiz-adv-x="356" d="M29 168H123L120 129Q118 87 155 87H166Q208 87 210 129L219 293Q222 340 183 340H41L60 718H325L321 629H144L133 427H207Q320 427 313 300L304 127Q298 0 185 0H133Q20 0 26 122L29 168Z" />
<glyph unicode="6" glyph-name="six" horiz-adv-x="377" d="M241 515L244 579Q247 631 205 631H189Q152 631 150 589L138 371L199 411H227Q335 411 329 288L320 121Q314 0 206 0H133Q25 0 31 121L56 595Q62 718 170 718H237Q345 718 339 595L335 515H241ZM136
324L126 130Q123 87 164 87H182Q224 87 227 130L234 272Q237 324 195 324H136Z" />
<glyph unicode="7" glyph-name="seven" horiz-adv-x="297" d="M45 0L199 629H24L28 718H274L298 666L138 0H45Z" />
<glyph unicode="8" glyph-name="eight" horiz-adv-x="375" d="M113 366Q47 381 50 453L58 595Q64 718 177 718H234Q347 718 341 595L333 452Q330 380 267 365Q335 345 331 279L323 122Q317 0 204 0H133Q20 0 26 122L34 280Q38 346 113 366ZM160 87H185Q227 87
230 139L237 273Q240 324 186 324Q131 323 128 274L121 139Q118 87 160 87ZM151 578L145 459Q142 407 184 407H195Q237 414 240 458L246 578Q249 630 207 630H196Q154 630 151 578Z" />
<glyph unicode="9" glyph-name="nine" horiz-adv-x="375" d="M134 168L132 139Q129 87 171 87H185Q222 87 224 129L234 303L172 263H151Q38 263 45 391L56 592Q62 718 175 718H236Q349 718 343 592L318 128Q312 0 199 0H143Q31 0 37 128L40 168H134ZM236 350L248
588Q251 631 205 631H194Q152 631 149 588L140 402Q137 350 179 350H236Z" />
<glyph unicode=":" glyph-name="colon" horiz-adv-x="156" d="M119 122L113 0H13L19 122H119ZM140 515L134 393H34L40 515H140Z" />
<glyph unicode=";" glyph-name="semicolon" horiz-adv-x="157" d="M24 -119L75 0H29L36 124H141L134 0L81 -119H24ZM143 515L137 393H37L43 515H143Z" />
<glyph unicode="&lt;" glyph-name="less" horiz-adv-x="302" d="M241 48L247 165L98 309L262 454L268 573L12 341L9 278L241 48Z" />
<glyph unicode="=" glyph-name="equal" horiz-adv-x="362" d="M41 384L45 466H329L325 384H41ZM32 222L36 304H320L316 222H32Z" />
<glyph unicode="&gt;" glyph-name="greater" horiz-adv-x="302" d="M33 46L289 278L292 342L60 571L54 454L203 310L39 165L33 46Z" />
<glyph unicode="?" glyph-name="question" horiz-adv-x="368" d="M109 194L115 315Q116 337 120 349T130 368T151 386L221 437Q233 447 236 455T241 484L246 587Q249 631 208 631H171Q132 631 129 587L127 535H33L36 595Q42 718 155 718H235Q347 718 341 595L333
449Q332 427 328 415T316 395T296 378L228 326Q215 317 212 309T207 280L203 194H109ZM204 122L198 0H98L104 122H204Z" />
<glyph unicode="@" glyph-name="at" horiz-adv-x="547" d="M375 165H423L443 550Q446 604 418 630T328 656H240Q185 655 155 624T122 537L97 63H482L479 0H30L58 533Q62 626 113 672T240 718H328Q433 718 472 673T508 555L484 106H302L311 280H235L226 106H156L178
516Q182 607 265 607H314Q398 607 394 516L375 165ZM315 345L324 512Q325 543 295 543H279Q249 543 248 512L239 345H315Z" />
<glyph unicode="A" glyph-name="A" horiz-adv-x="374" d="M114 0H20L51 595Q57 718 170 718H240Q353 718 347 595L316 0H222L235 263H127L114 0ZM240 350L253 589Q255 631 214 631H188Q147 631 145 589L132 350H240Z" />
<glyph unicode="B" glyph-name="B" horiz-adv-x="374" d="M263 369Q339 347 336 287L326 107Q321 0 214 0H25L62 718H223Q348 718 341 588L334 450Q331 388 263 374V369ZM123 87H194Q231 87 233 118L241 277Q244 328 188 328H136L123 87ZM140 415H184Q238 415
241 467L247 579Q250 631 208 631H152L140 415Z" />
<glyph unicode="C" glyph-name="C" horiz-adv-x="354" d="M315 168L312 122Q306 0 193 0H133Q20 0 26 122L51 596Q57 718 170 718H230Q343 718 337 596L333 515H239L243 589Q245 631 203 631H184Q147 631 145 589L120 129Q118 87 155 87H179Q216 87 218 129L221 168H315Z" />
<glyph unicode="D" glyph-name="D" horiz-adv-x="379" d="M25 0L62 718H226Q358 718 351 580L326 104Q321 0 208 0H25ZM123 87H194Q231 87 233 119L257 579Q260 631 218 631H152L123 87Z" />
<glyph unicode="E" glyph-name="E" horiz-adv-x="301" d="M25 0L62 718H296L292 631H152L140 413H264L260 326H136L123 87H263L259 0H25Z" />
<glyph unicode="F" glyph-name="F" horiz-adv-x="297" d="M264 413L260 326H136L119 0H25L62 718H296L292 631H152L140 413H264Z" />
<glyph unicode="G" glyph-name="G" horiz-adv-x="364" d="M183 263L188 350H331L313 0H129Q20 0 26 121L51 595Q57 718 166 718H230Q350 718 344 593L340 515H246L249 579Q252 631 212 631H188Q147 631 144 579L121 139Q118 87 159 87H223L232 263H183Z" />
<glyph unicode="H" glyph-name="H" horiz-adv-x="392" d="M235 0L252 326H136L119 0H25L62 718H156L140 413H256L272 718H366L329 0H235Z" />
<glyph unicode="I" glyph-name="I" horiz-adv-x="182" d="M25 0L62 718H156L119 0H25Z" />
<glyph unicode="J" glyph-name="J" horiz-adv-x="252" d="M-4 87H57Q99 87 102 139L132 718H226L195 121Q189 0 80 0H-8L-4 87Z" />
<glyph unicode="K" glyph-name="K" horiz-adv-x="365" d="M119 0H25L62 718H156L119 0ZM336 0H242L142 351V357L259 718H345L228 361L336 0Z" />
<glyph unicode="L" glyph-name="L" horiz-adv-x="278" d="M249 0H25L62 718H156L123 87H253L249 0Z" />
<glyph unicode="M" glyph-name="M" horiz-adv-x="470" d="M231 296L340 718H444L407 0H313L347 470L259 130H187L133 470L119 0H25L62 718H166L231 296Z" />
<glyph unicode="N" glyph-name="N" horiz-adv-x="377" d="M239 371L257 718H351L314 0H220L227 143L143 470L119 0H25L62 718H156L239 371Z" />
<glyph unicode="O" glyph-name="O" horiz-adv-x="394" d="M134 0Q20 0 26 122L51 595Q57 718 170 718H260Q373 718 367 595L342 122Q336 0 222 0H134ZM160 87H208Q246 87 248 129L273 589Q275 631 233 631H188Q147 631 145 589L120 129Q118 87 160 87Z" />
<glyph unicode="P" glyph-name="P" horiz-adv-x="359" d="M62 718H233Q347 718 341 595L330 382Q323 260 210 260H132L119 0H25L62 718ZM137 347H197Q234 347 236 389L247 589Q249 631 207 631H152L137 347Z" />
<glyph unicode="Q" glyph-name="Q" horiz-adv-x="408" d="M389 0H133Q20 0 26 121L51 595Q57 718 169 718H260Q372 718 366 595L339 87H393L389 0ZM245 87L272 589Q274 631 232 631H188Q147 631 145 589L120 129Q118 87 160 87H245Z" />
<glyph unicode="R" glyph-name="R" horiz-adv-x="370" d="M62 718H246Q354 718 348 595L339 418Q334 324 276 299L327 0H238L191 290H134L119 0H25L62 718ZM138 372H200Q242 372 245 424L253 579Q256 631 214 631H152L138 372Z" />
<glyph unicode="S" glyph-name="S" horiz-adv-x="352" d="M232 525L235 588Q238 631 197 631H182Q142 631 139 588L133 469Q132 449 139 442T164 424L250 375Q279 358 290 349T308 326T313 274L305 121Q299 0 185 0H128Q15 0 22 132L24 168H118L115 129Q113 87
155 87H172Q209 87 211 129L218 251Q219 271 212 278T187 296L101 347Q72 363 60 374T42 402T38 448L46 595Q52 718 165 718H223Q336 718 330 595L326 525H232Z" />
<glyph unicode="T" glyph-name="T" horiz-adv-x="294" d="M208 631L175 0H81L114 631H24L28 718H302L298 631H208Z" />
<glyph unicode="U" glyph-name="U" horiz-adv-x="394" d="M368 718L338 136Q331 0 217 0H138Q25 0 32 137L62 718H156L126 134Q123 87 164 87H203Q241 87 244 134L274 718H368Z" />
<glyph unicode="V" glyph-name="V" horiz-adv-x="358" d="M367 718L216 0H104L27 718H121L169 170L273 718H367Z" />
<glyph unicode="W" glyph-name="W" horiz-adv-x="545" d="M554 718L413 0H311L274 416L196 0H94L27 718H120L159 180L254 718H327L366 180L461 718H554Z" />
<glyph unicode="X" glyph-name="X" horiz-adv-x="327" d="M292 0H201L162 273H160L82 0H-4L103 363L38 718H130L169 453H171L244 718H331L229 363L292 0Z" />
<glyph unicode="Y" glyph-name="Y" horiz-adv-x="343" d="M201 0H107L121 264L28 718H121L176 406H179L259 718H352L215 264L201 0Z" />
<glyph unicode="Z" glyph-name="Z" horiz-adv-x="287" d="M103 87H262L258 0H-1L-7 34L172 630H39L43 718H256L274 677L103 87Z" />
<glyph unicode="[" glyph-name="bracketleft" horiz-adv-x="200" d="M25 -183L72 718H223L219 647H149L110 -112H180L176 -183H25Z" />
<glyph unicode="\" glyph-name="backslash" horiz-adv-x="281" d="M87 768L259 -50H193L21 768H87Z" />
<glyph unicode="]" glyph-name="bracketright" horiz-adv-x="200" d="M-23 -183L-19 -112H50L89 647H19L23 718H174L127 -183H-23Z" />
<glyph unicode="_" glyph-name="underscore" horiz-adv-x="269" d="M-1 -71L1 0H270L267 -71H-1Z" />
<glyph unicode="`" glyph-name="grave" horiz-adv-x="149" d="M11 680H98L136 562H69L11 680Z" />
<glyph unicode="a" glyph-name="a" horiz-adv-x="374" d="M114 0H20L51 595Q57 718 170 718H240Q353 718 347 595L316 0H222L235 263H127L114 0ZM240 350L253 589Q255 631 214 631H188Q147 631 145 589L132 350H240Z" />
<glyph unicode="b" glyph-name="b" horiz-adv-x="374" d="M263 369Q339 347 336 287L326 107Q321 0 214 0H25L62 718H223Q348 718 341 588L334 450Q331 388 263 374V369ZM123 87H194Q231 87 233 118L241 277Q244 328 188 328H136L123 87ZM140 415H184Q238 415
241 467L247 579Q250 631 208 631H152L140 415Z" />
<glyph unicode="c" glyph-name="c" horiz-adv-x="355" d="M315 168L312 122Q306 0 193 0H133Q20 0 26 122L51 596Q57 718 170 718H230Q343 718 337 596L333 515H239L243 589Q245 631 203 631H184Q147 631 145 589L120 129Q118 87 155 87H179Q216 87 218 129L221 168H315Z" />
<glyph unicode="d" glyph-name="d" horiz-adv-x="379" d="M25 0L62 718H226Q358 718 351 580L326 104Q321 0 208 0H25ZM123 87H194Q231 87 233 119L257 579Q260 631 218 631H152L123 87Z" />
<glyph unicode="e" glyph-name="e" horiz-adv-x="301" d="M25 0L62 718H296L292 631H152L140 413H264L260 326H136L123 87H263L259 0H25Z" />
<glyph unicode="f" glyph-name="f" horiz-adv-x="297" d="M264 413L260 326H136L119 0H25L62 718H296L292 631H152L140 413H264Z" />
<glyph unicode="g" glyph-name="g" horiz-adv-x="365" d="M183 263L188 350H331L313 0H129Q20 0 26 121L51 595Q57 718 166 718H230Q350 718 344 593L340 515H246L249 579Q252 631 212 631H188Q147 631 144 579L121 139Q118 87 159 87H223L232 263H183Z" />
<glyph unicode="h" glyph-name="h" horiz-adv-x="392" d="M235 0L252 326H136L119 0H25L62 718H156L140 413H256L272 718H366L329 0H235Z" />
<glyph unicode="i" glyph-name="i" horiz-adv-x="182" d="M25 0L62 718H156L119 0H25Z" />
<glyph unicode="j" glyph-name="j" horiz-adv-x="252" d="M-4 87H57Q99 87 102 139L132 718H226L195 121Q189 0 80 0H-8L-4 87Z" />
<glyph unicode="k" glyph-name="k" horiz-adv-x="365" d="M119 0H25L62 718H156L119 0ZM336 0H242L142 351V357L259 718H345L228 361L336 0Z" />
<glyph unicode="l" glyph-name="l" horiz-adv-x="277" d="M249 0H25L62 718H156L123 87H253L249 0Z" />
<glyph unicode="m" glyph-name="m" horiz-adv-x="470" d="M231 296L340 718H444L407 0H313L347 470L259 130H187L133 470L119 0H25L62 718H166L231 296Z" />
<glyph unicode="n" glyph-name="n" horiz-adv-x="377" d="M239 371L257 718H351L314 0H220L227 143L143 470L119 0H25L62 718H156L239 371Z" />
<glyph unicode="o" glyph-name="o" horiz-adv-x="394" d="M134 0Q20 0 26 122L51 595Q57 718 170 718H260Q373 718 367 595L342 122Q336 0 222 0H134ZM160 87H208Q246 87 248 129L273 589Q275 631 233 631H188Q147 631 145 589L120 129Q118 87 160 87Z" />
<glyph unicode="p" glyph-name="p" horiz-adv-x="360" d="M62 718H233Q347 718 341 595L330 382Q323 260 210 260H132L119 0H25L62 718ZM137 347H197Q234 347 236 389L247 589Q249 631 207 631H152L137 347Z" />
<glyph unicode="q" glyph-name="q" horiz-adv-x="409" d="M389 0H133Q20 0 26 121L51 595Q57 718 169 718H260Q372 718 366 595L339 87H393L389 0ZM245 87L272 589Q274 631 232 631H188Q147 631 145 589L120 129Q118 87 160 87H245Z" />
<glyph unicode="r" glyph-name="r" horiz-adv-x="370" d="M62 718H246Q354 718 348 595L339 418Q334 324 276 299L327 0H238L191 290H134L119 0H25L62 718ZM138 372H200Q242 372 245 424L253 579Q256 631 214 631H152L138 372Z" />
<glyph unicode="s" glyph-name="s" horiz-adv-x="353" d="M232 525L235 588Q238 631 197 631H182Q142 631 139 588L133 469Q132 449 139 442T164 424L250 375Q279 358 290 349T308 326T313 274L305 121Q299 0 185 0H128Q15 0 22 132L24 168H118L115 129Q113 87
155 87H172Q209 87 211 129L218 251Q219 271 212 278T187 296L101 347Q72 363 60 374T42 402T38 448L46 595Q52 718 165 718H223Q336 718 330 595L326 525H232Z" />
<glyph unicode="t" glyph-name="t" horiz-adv-x="294" d="M208 631L175 0H81L114 631H24L28 718H302L298 631H208Z" />
<glyph unicode="u" glyph-name="u" horiz-adv-x="394" d="M368 718L338 136Q331 0 217 0H138Q25 0 32 137L62 718H156L126 134Q123 87 164 87H203Q241 87 244 134L274 718H368Z" />
<glyph unicode="v" glyph-name="v" horiz-adv-x="359" d="M367 718L216 0H104L27 718H121L169 170L273 718H367Z" />
<glyph unicode="w" glyph-name="w" horiz-adv-x="546" d="M554 718L413 0H311L274 416L196 0H94L27 718H120L159 180L254 718H327L366 180L461 718H554Z" />
<glyph unicode="x" glyph-name="x" horiz-adv-x="326" d="M292 0H201L162 273H160L82 0H-4L103 363L38 718H130L169 453H171L244 718H331L229 363L292 0Z" />
<glyph unicode="y" glyph-name="y" horiz-adv-x="343" d="M201 0H107L121 264L28 718H121L176 406H179L259 718H352L215 264L201 0Z" />
<glyph unicode="z" glyph-name="z" horiz-adv-x="287" d="M103 87H262L258 0H-1L-7 34L172 630H39L43 718H256L274 677L103 87Z" />
<glyph unicode="{" glyph-name="braceleft" horiz-adv-x="223" d="M83 303Q143 283 140 217L125 -62Q123 -113 166 -113H203L199 -182H146Q37 -182 43 -59L57 208Q60 260 4 260L8 341Q64 341 67 393L78 595Q84 718 193 718H246L242 649H205Q162 649 160 598L148
380Q145 317 83 303Z" />
<glyph unicode="|" glyph-name="bar" horiz-adv-x="186" d="M27 -80L72 798H158L113 -80H27Z" />
<glyph unicode="}" glyph-name="braceright" horiz-adv-x="223" d="M142 303Q81 317 84 380L96 598Q98 649 55 649H19L23 718H76Q184 718 178 595L167 393Q164 341 221 341L217 260Q160 260 157 208L143 -59Q137 -182 29 -182H-23L-19 -113H16Q59 -113 61 -62L76
217Q79 283 142 303Z" />
</font>
</defs>
</svg>
