<svg xmlns="http://www.w3.org/2000/svg" width="900" height="283.636"><g><path d="M900 141.818c0 10.688-201.472 141.818-450 141.818S0 156.256 0 141.818C0 124.142 201.472 0 450 0s450 125.676 450 141.818z" fill="#692161"/><path d="M582.108 142.12c0 72.085-58.437 130.522-130.523 130.522-72.085 0-130.523-58.437-130.523-130.523 0-72.087 58.438-130.524 130.523-130.524 72.086 0 130.523 58.437 130.523 130.523z" fill="#9a3b91"/><path d="M451.15 47.567c-52.34 0-94.82 42.35-94.82 94.687 0 52.337 42.48 94.817 94.82 94.817 11.26 0 22.06-1.98 32.08-5.584-36.61-13.115-62.865-48.112-62.865-89.232s26.256-75.987 62.865-89.102c-10.02-3.604-20.82-5.585-32.082-5.585z" fill="#fff"/></g></svg>