<svg xmlns="http://www.w3.org/2000/svg" width="167.77" height="500"><g><path d="M82.849 0l-56.145 56.145h17.943v48.042h-17.365v33.571h18.233c3.243 13.277 18.732 23.297 37.334 23.297 18.602 0 34.09-10.02 37.334-23.297h18.667v-33.571h-17.365v-48.042h17.943l-56.145-56.145-.144.289-.289-.289zm-51.515 109.541h9.261v22.719h-9.261v-22.719zm94.203 0h9.261v22.719h-9.261v-22.719z" fill="#231f20"/><path d="M440.484 246.169v335.089" stroke="#231f20" stroke-width="10.187" stroke-linecap="square" fill="none" transform="translate(-356.769 -86.352)"/><path d="M519.909 579.378l-46.997-366.577" stroke="#231f20" stroke-width="9.261" stroke-linecap="square" fill="none" transform="translate(-356.769 -86.352)"/><path d="M510.51 508.412h-140.051v.47" stroke="#231f20" stroke-width="4.631" fill="none" transform="translate(-356.769 -86.352)"/><path d="M487.011 318.074h-91.174v.94" stroke="#231f20" stroke-width="4.631" fill="none" transform="translate(-356.769 -86.352)"/><path d="M510.51 508.882l-68.616 68.616.47.47" stroke="#231f20" stroke-width="6.946" stroke-linecap="round" fill="none" transform="translate(-356.769 -86.352)"/><path d="M372.289 508.884l68.616 68.616-.47.47" stroke="#231f20" stroke-width="6.946" stroke-linecap="round" fill="none" transform="translate(-356.769 -86.352)"/><path d="M487.951 320.424l-116.083 183.289" stroke="#231f20" stroke-width="7.409" stroke-linecap="round" fill="none" transform="translate(-356.769 -86.352)"/><path d="M396.434 323.066l114.316 180.499" stroke="#231f20" stroke-width="7.296" stroke-linecap="round" fill="none" transform="translate(-356.769 -86.352)"/><path d="M361.4 579.378l46.997-366.577" stroke="#231f20" stroke-width="9.261" stroke-linecap="square" fill="none" transform="translate(-356.769 -86.352)"/></g></svg>