<svg xmlns="http://www.w3.org/2000/svg" width="167.77" height="500"><g><path d="M82.85 0L26.703 56.145h17.943v48.042H27.282v33.572h18.233c3.244 13.276 18.732 23.296 37.334 23.296 18.6 0 34.09-10.02 37.333-23.297h18.667v-33.573h-17.365V56.145h17.943L83.283 0l-.144.29-.29-.29zM744.87 282.245h9.26v22.718h-9.26v-22.717zm94.203 0h9.26v22.718h-9.26v-22.717z" fill="#231f20"/><path d="M83.715 159.817v335.09" stroke="#231f20" stroke-width="10.187" stroke-linecap="square" fill="none"/><path d="M163.14 493.027L116.143 126.45" stroke="#231f20" stroke-width="9.261" stroke-linecap="square" fill="none"/><path d="M153.74 422.06H13.69v.47" stroke="#231f20" stroke-width="4.631" fill="none"/><path d="M130.242 231.723H39.068v.94" stroke="#231f20" stroke-width="4.631" fill="none"/><path d="M153.74 422.53l-68.615 68.617.47.47" stroke="#231f20" stroke-width="6.946" stroke-linecap="round" fill="none"/><path d="M15.52 422.532l68.616 68.616-.47.47" stroke="#231f20" stroke-width="6.946" stroke-linecap="round" fill="none"/><path d="M131.182 234.072L15.1 417.362" stroke="#231f20" stroke-width="7.409" stroke-linecap="round" fill="none"/><path d="M39.665 236.714l114.315 180.5" stroke="#231f20" stroke-width="7.296" stroke-linecap="round" fill="none"/><path d="M4.63 493.026L51.63 126.45" stroke="#231f20" stroke-width="9.261" stroke-linecap="square" fill="none"/></g></svg>