<svg xmlns="http://www.w3.org/2000/svg" width="167.77" height="500"><g><path d="M82.849 0l-56.145 56.145h17.943v48.042h-17.365v33.571h18.233c3.243 13.277 18.732 23.297 37.334 23.297 18.602 0 34.09-10.02 37.334-23.297h18.667v-33.571h-17.365v-48.042h17.943l-56.145-56.145-.144.289-.289-.289zm-51.515 109.541h9.261v22.719h-9.261v-22.719zm94.203 0h9.261v22.719h-9.261v-22.719z" fill="#231f20"/><path d="M83.715 159.817v335.089" stroke="#231f20" stroke-width="10.187" stroke-linecap="square" fill="none"/><path d="M163.14 493.027l-46.997-366.577" stroke="#231f20" stroke-width="9.261" stroke-linecap="square" fill="none"/><path d="M153.741 422.061h-140.051v.47" stroke="#231f20" stroke-width="4.631" fill="none"/><path d="M130.242 231.723h-91.174v.94" stroke="#231f20" stroke-width="4.631" fill="none"/><path d="M153.741 422.531l-68.616 68.616.47.47" stroke="#231f20" stroke-width="6.946" stroke-linecap="round" fill="none"/><path d="M15.52 422.532l68.616 68.616-.47.47" stroke="#231f20" stroke-width="6.946" stroke-linecap="round" fill="none"/><path d="M131.182 234.072l-116.083 183.289" stroke="#231f20" stroke-width="7.409" stroke-linecap="round" fill="none"/><path d="M39.665 236.714l114.316 180.499" stroke="#231f20" stroke-width="7.296" stroke-linecap="round" fill="none"/><path d="M4.631 493.026l46.997-366.577" stroke="#231f20" stroke-width="9.261" stroke-linecap="square" fill="none"/></g></svg>