<svg xmlns="http://www.w3.org/2000/svg" width="36.203" height="107.979"><g><path d="M17.864 0l-12.125 12.125h3.875v10.375h-3.75v7.25h3.938c.7 2.867 4.045 5.031 8.063 5.031 4.017 0 7.362-2.164 8.063-5.031h4.031v-7.25h-3.75v-10.375h3.875l-12.125-12.125-.031.063-.063-.063zm-11.125 23.656h2v4.906h-2v-4.906zm20.344 0h2v4.906h-2v-4.906z"/><path d="M374.949 512.886v72.365" stroke="#000" stroke-width="2.2" stroke-linecap="square" fill="none" transform="translate(-356.898 -478.373)"/><path d="M357.898 584.846l10.555-77.237" stroke="#000" stroke-width="2" stroke-linecap="square" fill="none" transform="translate(-356.898 -478.373)"/><path d="M392.102 584.846l-10.149-79.165" stroke="#000" stroke-width="2" stroke-linecap="square" fill="none" transform="translate(-356.898 -478.373)"/><path d="M390.072 569.52h-30.245v.101" stroke="#000" fill="none" transform="translate(-356.898 -478.373)"/><path d="M384.997 528.415h-19.69v.203" stroke="#000" fill="none" transform="translate(-356.898 -478.373)"/><path d="M390.072 569.621l-14.818 14.818.101.101" stroke="#000" stroke-width="1.5" stroke-linecap="round" fill="none" transform="translate(-356.898 -478.373)"/><path d="M360.222 569.622l14.818 14.818-.101.101" stroke="#000" stroke-width="1.5" stroke-linecap="round" fill="none" transform="translate(-356.898 -478.373)"/><path d="M385.2 528.923l-25.069 39.583" stroke="#000" stroke-width="1.6" stroke-linecap="round" fill="none" transform="translate(-356.898 -478.373)"/><path d="M365.436 529.493l24.687 38.98" stroke="#000" stroke-width="1.576" stroke-linecap="round" fill="none" transform="translate(-356.898 -478.373)"/></g></svg>