<svg xmlns="http://www.w3.org/2000/svg" width="900" height="283.636"><g><path d="M900 141.818c0 10.688-201.472 141.818-450 141.818s-450-127.38-450-141.818c0-17.676 201.472-141.818 450-141.818s450 125.676 450 141.818z" fill="#692161"/><path d="M582.108 142.119c0 72.086-58.437 130.523-130.523 130.523s-130.523-58.437-130.523-130.523 58.437-130.523 130.523-130.523 130.523 58.437 130.523 130.523z" fill="#9a3b91"/><path d="M451.149 47.567c-52.337 0-94.817 42.35-94.817 94.687 0 52.337 42.48 94.817 94.817 94.817 11.261 0 22.063-1.981 32.082-5.585-36.609-13.115-62.865-48.112-62.865-89.232s26.256-75.987 62.865-89.102c-10.019-3.604-20.821-5.585-32.082-5.585z" fill="#fff"/></g></svg>